<svg width="15" height="16" viewBox="0 0 15 16" fill="none" xmlns="http://www.w3.org/2000/svg">
<path d="M11.6182 5.50421H10.2909C10.1361 5.50421 9.98866 5.43715 9.88656 5.32071L9.34806 4.71281C9.19191 4.53798 8.92366 4.52297 8.74917 4.67911C8.73749 4.68979 8.72614 4.7008 8.71547 4.71281L8.25404 5.23396C8.10356 5.40546 7.88669 5.50388 7.65848 5.50455H0.394368C0.185173 6.10478 0.0523822 6.72902 0 7.36262H6.8574C6.97751 7.36262 7.09229 7.31324 7.17503 7.22616L7.81496 6.55887C7.89504 6.47612 8.00514 6.42975 8.12025 6.42975H8.14494C8.26605 6.43041 8.38116 6.48146 8.46257 6.57121L9.00107 7.17911C9.10283 7.29589 9.2503 7.36295 9.40545 7.36262H15C14.9486 6.72902 14.8162 6.10444 14.6056 5.50455H11.6185L11.6182 5.50421ZM4.14821 11.2699C4.26798 11.2693 4.38276 11.2199 4.46584 11.1335L5.10343 10.4662C5.18384 10.3844 5.29361 10.3377 5.40872 10.3371H5.43607C5.55719 10.3377 5.67229 10.3888 5.7537 10.4785L6.28954 11.0864C6.39197 11.2025 6.5391 11.2693 6.69391 11.2699H14.278C14.5669 10.6757 14.7755 10.0461 14.8982 9.39685H7.61644C7.46297 9.39618 7.31683 9.33045 7.2144 9.21568L6.6759 8.60778C6.59549 8.51636 6.48005 8.46398 6.35827 8.46398C6.23715 8.46364 6.12205 8.51636 6.04331 8.60778L5.58188 9.12893C5.43007 9.29976 5.21253 9.39718 4.98399 9.39685H0.101762C0.223208 10.0475 0.431069 10.679 0.719672 11.2749L4.14821 11.2699ZM9.52923 3.47265C9.65001 3.47265 9.76545 3.42327 9.84919 3.33619L10.4868 2.67124C10.5662 2.58749 10.6766 2.54012 10.7921 2.53978H10.8194C10.9405 2.53945 11.0557 2.59216 11.1344 2.68358L11.6729 3.29148C11.7763 3.40592 11.9231 3.47165 12.0773 3.47265H13.5186C11.022 0.14855 6.30355 -0.52241 2.97945 1.97392C2.41192 2.40032 1.90745 2.90479 1.48105 3.47232H9.52923V3.47265ZM6.63152 13.131H4.65935C4.5052 13.131 4.35874 13.0639 4.25731 12.9475L3.72147 12.3396C3.56399 12.1641 3.29441 12.1498 3.11891 12.3072C3.10757 12.3176 3.09656 12.3283 3.08655 12.3396L2.62278 12.8704C2.47264 13.0423 2.25544 13.1407 2.02723 13.141H1.99753C4.83118 16.1808 9.59262 16.3477 12.6325 13.514C12.7612 13.3942 12.8854 13.2698 13.0055 13.141L6.63186 13.131H6.63152Z" fill="white"/>
</svg>
